<svg clip-rule="evenodd" fill-rule="evenodd" stroke-linejoin="round" stroke-miterlimit="2" viewBox="55 130 425 125" xmlns="http://www.w3.org/2000/svg"><path fill="white" d="m8.55 7.294c-.414-2.446-2.654-4.084-4.993-3.65-1.726.319-3.029 1.68-3.428 3.354-.001.003-.002.007-.003.01-.014.062-.027.124-.039.186l-.005.022c-.011.06-.021.121-.03.182-.001.008-.003.015-.004.023-.01.068-.018.137-.025.206l-.001.014c-.006.062-.011.125-.014.187-.004.069-.006.139-.006.208-.001.02-.002.039-.002.059 0 .017.001.034.001.051.001.026.001.052.002.079.007.212.027.426.064.641.236 1.396 1.51 2.327 2.845 2.08.481-.089.906-.32 1.24-.644.276-.268.689-.342 1.041-.188.431.188.907.242 1.369.156 1.281-.238 2.152-1.475 2.011-2.808-.006-.056-.014-.112-.023-.168m10.32-3.069c-4.725 0-7.66 1.669-7.66 4.355 0 3.132 3.007 7.407 7.66 7.407 4.581 0 7.66-4.323 7.66-7.407 0-2.727-2.864-4.355-7.66-4.355m18.864 3.663c-.001-.021-.002-.041-.003-.062-.004-.062-.008-.123-.014-.185l-.001-.014c-.007-.069-.016-.138-.025-.206l-.004-.023c-.019-.131-.044-.261-.075-.39l-.002-.01c-.399-1.674-1.702-3.035-3.428-3.354-2.339-.434-4.579 1.204-4.994 3.65-.009.056-.016.112-.022.168-.141 1.333.73 2.57 2.011 2.808.479.088.95.025 1.369-.156.352-.154.765-.08 1.041.188.334.324.758.555 1.24.644 1.335.247 2.609-.684 2.845-2.08.037-.215.057-.429.064-.641 0-.027.001-.053.002-.079 0-.017.001-.034.001-.051 0-.02-.001-.039-.002-.059 0-.049-.001-.099-.003-.148m-12.072 10.569c-1.241-.558-2.908.395-4.317.626-.83.143-1.652.216-2.475.225-.83-.009-1.657-.084-2.475-.225-1.409-.231-3.076-1.183-4.317-.626-.629.286-.823.981-.567 1.812.175.568.515 1.092.946 1.514.895.882 2.041 1.549 3.096 1.971 1.074.433 2.194.664 3.317.672 1.123-.008 2.243-.239 3.317-.672 1.055-.421 2.2-1.09 3.096-1.971.431-.422.771-.946.946-1.514.256-.83.062-1.527-.567-1.812m69.178-9.259c-1.86 0-3.298.677-4.341 2.227v-1.346c0-.313-.258-.571-.572-.571h-3.705c-.314 0-.572.258-.572.571v13.461c0 .314.258.571.572.571h3.705c.314 0 .572-.257.572-.571v-7.322c0-1.664.592-3.13 2.34-3.13 1.776 0 2.312 1.72 2.312 3.13v7.322c0 .313.258.571.571.571h3.707c.313 0 .571-.258.571-.571v-7.604c0-3.186-.902-6.738-5.16-6.738m-28.701 11.392-.766-.002c-.607-.021-.875-.482-.875-1.106v-.284h.002v-14.612c0-.313-.258-.571-.571-.571h-3.608c-.314 0-.571.258-.572.571v14.646c0 4.193 2.694 5.165 5.221 5.165.347 0 .681-.023 1.214-.067.295-.024.524-.274.525-.569v-2.599c0-.313-.257-.571-.57-.572m9.228.026c-2.057 0-3.327-1.692-3.327-3.834 0-2.059 1.213-3.75 3.271-3.75s3.439 1.551 3.439 3.89c0 2.312-1.466 3.694-3.383 3.694m7.548-11.108h-3.706c-.314 0-.572.258-.572.571v1.375c-.902-1.354-2.536-2.256-4.453-2.256-4.285 0-7.02 3.355-7.02 7.583 0 4.314 2.846 7.641 7.048 7.641 2.057 0 3.495-.875 4.425-2.312v1.43c0 .314.258.571.571.571h3.707c.313 0 .571-.257.571-.571v-13.461c0-.313-.257-.571-.571-.571m-33.448 11.108c-2.058 0-3.327-1.692-3.327-3.834 0-2.059 1.212-3.75 3.271-3.75 2.057 0 3.438 1.551 3.438 3.89 0 2.312-1.465 3.694-3.382 3.694m7.547-11.108h-3.706c-.314 0-.571.258-.571.571v1.375c-.903-1.354-2.537-2.256-4.454-2.256-4.285 0-7.02 3.355-7.02 7.583 0 4.314 2.847 7.641 7.048 7.641 2.058 0 3.496-.875 4.425-2.312v1.43c0 .313.258.571.572.571h3.706c.314 0 .571-.257.572-.571v-13.461c0-.313-.258-.571-.572-.571" transform="matrix(4.31619 0 0 4.31619 64.1904 139.573)"/></svg>
