<svg xmlns="http://www.w3.org/2000/svg" viewBox="0 0 180 40" fill="white">
  <g transform="translate(-12, -18) scale(3.6)">
    <path d="M4.59 6.85c.35.94.15 4.72.15 6.07 0 1.12-.06 1.72-.06 1.72a9.91 9.91 0 0 0 2 .18A5.45 5.45 0 0 0 10 13.75a3.92 3.92 0 0 0 1.44-3.23 3.43 3.43 0 0 0-1.63-3.17 6.38 6.38 0 0 0-3.47-.66 16.58 16.58 0 0 0-1.75.16z"/>
    <path d="M6.43 8.18h.68a3 3 0 0 1 2.05.74 2.45 2.45 0 0 1 .68 1.93A2.38 2.38 0 0 1 8.52 13a3.81 3.81 0 0 1-2.1.32V8.18z"/>
    <path d="M16.19 11.45a11.1 11.1 0 0 0-1.41-3.12 11.35 11.35 0 0 0-1.41 3.12h2.83zM14 6.9h1.62c1.57 1.74 2.54 4.28 2.86 7.64h-1.75q-.07-.88-.21-1.68H13a16.69 16.69 0 0 0-.21 1.68h-1.68c.4-3.42 1.35-6 2.89-7.64z"/>
    <path d="M18.78 14.54h1.67v-5.2a11.7 11.7 0 0 1 3.41 5.21h1.49V6.9h-1.67v3.69a16.38 16.38 0 0 0-3.5-3.69h-1.4v7.64z"/>
    <path d="M29.58 6.67a4 4 0 0 1 3.86 4.08 3.86 3.86 0 1 1-7.71 0 4 4 0 0 1 3.85-4.08zm0 1.51a2.44 2.44 0 0 1 2.3 2.57 2.31 2.31 0 1 1-4.6 0 2.44 2.44 0 0 1 2.3-2.57z"/>
    <path d="M33.78 14.54h1.67v-5.2a11.7 11.7 0 0 1 3.41 5.21h1.54V6.9h-1.68v3.69a16.38 16.38 0 0 0-3.5-3.69h-1.4v7.64z"/>
    <path d="M46.28 10H42.5a2.1 2.1 0 0 1 2-1.89A1.8 1.8 0 0 1 46.28 10zm1.43 3.07l-1.61-.39a2.08 2.08 0 0 1-1.56.63 2.05 2.05 0 0 1-2.09-2h5.32a5.76 5.76 0 0 0 .08-1.32A4.09 4.09 0 0 0 47 7.7a3 3 0 0 0-2.53-1 3.51 3.51 0 0 0-2.65 1.12 4.37 4.37 0 0 0-1 3.13A4.06 4.06 0 0 0 42 14a3.17 3.17 0 0 0 2.33.85 4.1 4.1 0 0 0 3.39-1.75z"/>
  </g>
</svg>
